<?xml version="1.0" standalone="no"?>
<!DOCTYPE svg PUBLIC "-//W3C//DTD SVG 20010904//EN"
 "http://www.w3.org/TR/2001/REC-SVG-20010904/DTD/svg10.dtd">
<svg version="1.0" xmlns="http://www.w3.org/2000/svg"
 width="2113.000000pt" height="2016.000000pt" viewBox="0 0 2113.000000 2016.000000"
 preserveAspectRatio="xMidYMid meet">

<g transform="translate(0.000000,2016.000000) scale(0.100000,-0.100000)"
fill="#000000" stroke="none">
<path d="M10 10080 l0 -10080 10555 0 10555 0 0 10080 0 10080 -10555 0
-10555 0 0 -10080z m6210 5210 c36 -10 103 -28 150 -40 47 -12 108 -28 135
-35 28 -7 66 -16 85 -20 19 -3 71 -14 115 -25 44 -10 112 -25 150 -34 39 -9
86 -16 106 -16 20 0 67 -6 105 -14 208 -43 636 -111 884 -140 69 -9 181 -23
249 -32 68 -8 172 -19 230 -24 58 -5 160 -13 226 -19 386 -35 494 -43 687 -51
117 -5 301 -14 408 -20 251 -13 1748 -13 1990 0 102 5 285 14 407 19 121 6
304 17 405 26 100 8 264 22 363 31 99 8 254 24 345 35 91 11 224 27 295 35 72
9 184 24 250 34 66 10 170 26 230 35 61 9 144 23 185 31 41 8 104 19 140 25
36 5 81 14 100 19 19 6 54 10 78 10 24 0 71 6 105 14 34 8 105 24 157 35 52
12 130 30 173 41 42 11 114 29 160 40 45 12 111 29 147 39 36 11 82 22 103 26
l37 6 0 -354 0 -353 -47 -11 c-27 -7 -79 -21 -118 -32 -120 -33 -506 -129
-630 -155 -238 -50 -297 -62 -545 -105 -187 -33 -569 -85 -742 -102 l-118 -11
0 -3648 0 -3648 63 -11 c34 -5 87 -13 117 -16 30 -3 111 -15 180 -26 69 -11
168 -27 220 -35 52 -8 140 -23 195 -34 55 -10 141 -26 190 -35 50 -9 128 -25
175 -35 47 -10 121 -26 165 -35 44 -9 116 -25 160 -35 44 -11 114 -26 155 -36
41 -9 111 -25 155 -36 44 -11 105 -26 135 -33 50 -12 157 -40 253 -66 l37 -10
0 -356 0 -355 -22 6 c-141 41 -277 75 -423 105 -22 5 -67 16 -100 24 -33 8
-96 22 -140 32 -44 9 -118 25 -165 35 -47 10 -125 26 -175 35 -49 9 -133 24
-185 35 -52 10 -142 26 -200 35 -58 9 -157 25 -220 35 -196 32 -554 81 -770
104 -74 8 -202 22 -285 31 -82 9 -208 20 -280 25 -71 5 -197 13 -280 19 -225
16 -498 30 -810 42 -311 13 -1251 6 -1505 -11 -85 -5 -245 -14 -355 -19 -369
-18 -934 -70 -1315 -121 -319 -44 -380 -52 -495 -71 -66 -11 -160 -27 -210
-35 -324 -53 -798 -151 -1095 -227 -63 -16 -142 -35 -175 -42 -33 -7 -73 -18
-88 -24 -16 -6 -30 -11 -33 -11 -2 0 -3 161 -2 357 l3 357 35 9 c19 4 58 15
87 23 197 56 824 198 1098 249 50 9 133 25 185 35 52 10 140 25 195 34 288 45
358 56 440 66 50 6 100 14 113 17 l22 5 0 3648 0 3648 -117 11 c-108 11 -182
20 -518 67 -60 8 -155 23 -210 34 -55 10 -145 26 -200 35 -55 9 -136 25 -180
35 -44 10 -118 26 -165 35 -47 10 -116 25 -155 35 -38 9 -104 25 -145 34 -41
9 -109 26 -150 37 -41 12 -100 27 -130 35 -30 8 -84 24 -120 35 -36 10 -71 19
-77 19 -10 0 -13 78 -13 356 l0 356 33 -7 c17 -4 61 -15 97 -25z"/>
<path d="M9130 10545 l0 -3598 48 7 c26 4 103 11 172 16 69 5 204 16 300 24
333 28 1051 41 1563 27 254 -7 539 -19 632 -27 94 -8 226 -19 295 -24 69 -5
151 -12 183 -16 l57 -7 0 3598 0 3598 -52 -7 c-29 -3 -174 -11 -323 -16 -1068
-40 -1446 -40 -2528 0 -147 5 -285 13 -307 16 l-40 7 0 -3598z"/>
</g>
</svg>
